# xmcd
#
# Track frame offsets:
#	150
#	22223
#	41484
#	67135
#	80643
#	99475
#	119214
#	135656
#	152100
#	173675
#	195748
#	215008
#	240669
#	254177
#	273011
#	292747
#	309193
#	325637
#
# Disc length: 4629
#
# Revision: 1
# Processed by: cddbd v1.5.2PL0 Copyright (c) Steve Scherf et al.
# Submitted via: kJams Pro (Tryout) (development) 1.0patch51.13
#
DISCID=0b121312
DTITLE=Various Artist - Pop Latin Vol 2
DYEAR=2002
DGENRE=Pop Latin
TTITLE0=Marc Anthony - Hasta Que Vuelvo Conmigo
TTITLE1=Christian Castro - Lloviendo Estrellas
TTITLE2=Alexandre Pires - Necesidad
TTITLE3=Charlie Zaa - Flor Sin Ritono
TTITLE4=Jaime Camil - Dime
TTITLE5=Luis Fonsi - Quisiera Poder Olvidarme De Ti
TTITLE6=Paulina Rubio - Si Tu Te Vas
TTITLE7=Paulina Rubio - Don't Say Goodbye (english Version Of Si Tu Te Vas)
TTITLE8=Mark Anthony - Celos
TTITLE9=Marc Anthony - Hasta Que Vuelvo Conmigo
TTITLE10=Christian Castro - Lloviendo Estrellas
TTITLE11=Alexandre Pires - Necesidad
TTITLE12=Charlie Zaa - Flor Sin Ritono
TTITLE13=Jaime Camil - Dime
TTITLE14=Luis Fonsi - Quisiera Poder Olvidarme De Ti
TTITLE15=Paulina Rubio - Si Tu Te Vas
TTITLE16=Paulina Rubio - Don't Say Goodbye (English Version Of Si Tu Te Vas)
TTITLE17=Mark Anthony - Celos
EXTD=
EXTT0=
EXTT1=
EXTT2=
EXTT3=
EXTT4=
EXTT5=
EXTT6=
EXTT7=
EXTT8=
EXTT9=
EXTT10=
EXTT11=
EXTT12=
EXTT13=
EXTT14=
EXTT15=
EXTT16=
EXTT17=
PLAYORDER=
